<svg width="137" height="35" viewBox="0 0 137 35" fill="none" xmlns="http://www.w3.org/2000/svg">
<g clip-path="url(#clip0_736_11410)">
<path fill-rule="evenodd" clip-rule="evenodd" d="M17.1 -0.00128174C7.7 -0.00128174 0 7.59872 0 17.0987C0 26.4987 7.6 34.1987 17.1 34.1987C26.5 34.1987 34.2 26.5987 34.2 17.0987C34.2 7.59872 26.5 -0.00128174 17.1 -0.00128174ZM17.1 32.7987C8.4 32.7987 1.4 25.7987 1.4 17.0987C1.4 8.39872 8.4 1.39872 17.1 1.39872C25.8 1.39872 32.8 8.39872 32.8 17.0987C32.9 25.6987 25.8 32.7987 17.1 32.7987Z" fill="white"/>
<path fill-rule="evenodd" clip-rule="evenodd" d="M17.1 29.7987C17.7 29.7987 18 29.3987 18.1 28.8987C18.2 29.0987 18.4 29.2987 18.6 29.3987C18.8 29.3987 19.1 29.3987 19.3 29.2987C19.5 29.1987 19.7 28.9987 19.8 28.7987C19.9 28.5987 19.9 28.2987 19.8 28.0987C20.1 28.4987 20.5 28.5987 21 28.3987C21.6 28.0987 21.8 27.6987 21.5 27.0987C20.8 25.3987 20.1 23.7987 19.4 22.0987C19.3 21.8987 19.3 21.7987 19.2 21.5987C19.1 21.4987 19.1 21.3987 19 21.2987C19 21.1987 18.9 21.1987 18.8 21.0987C19.9 21.1987 20.4 21.5987 20.7 21.7987C20.8 21.8987 20.8 21.8987 21.1 21.7987H21.5C21.6 21.8987 21.8 21.9987 21.9 21.9987L23.1 22.8987C23.3 23.0987 23.5 23.2987 23.5 23.5987C23.5 23.7987 22.9 24.2987 22.8 24.4987C22.4 24.8987 23 25.4987 23.8 25.4987C23.6 25.2987 23.5 25.0987 23.6 24.8987C23.7 24.8987 23.8 24.8987 24 24.7987C24.2 24.6987 24.1 24.1987 24.2 24.0987C24.5 23.7987 25.3 23.7987 25.9 23.7987C26.1 23.7987 26.4 23.6987 26.3 23.3987C26.6 23.3987 26.7 23.6987 26.7 23.8987C27 23.6987 27.2 22.9987 26.2 22.7987C26.4 22.5987 26.7 22.5987 26.9 22.7987C27.1 22.4987 26.6 21.9987 25.8 22.2987C25.8 22.2987 25.4 21.7987 24.4 22.9987C24.3 22.8987 24.1 22.7987 24 22.6987L22.6 21.2987C22.6 20.6987 22.5 19.5987 21.8 18.9987C21.5 18.6987 21.2 18.5987 20.5 18.3987C20.5 18.3987 20.8 17.8987 20.9 17.6987C21.5 18.2987 22.7 18.4987 22.7 17.4987C23.7 18.4987 24.6 17.8987 24.6 17.2987C24.6 17.5987 24.7 17.8987 24.8 18.1987C24.9 18.4987 25.4 19.7987 26.5 19.7987C26.5 20.1987 26.5 21.6987 27.9 21.9987C28 21.9987 28 21.9987 28.1 22.0987C28.7 22.7987 31 23.4987 31.2 23.2987C31 23.1987 30.7 22.9987 30.7 22.1987C30.7 21.6987 30.6 18.8987 30.6 14.9987C30.6 13.5987 30.5 9.09874 26 8.49874C25.3 8.39874 24.7 8.49874 24.1 8.89874C23.3 9.49874 22.9 10.4987 23.4 11.5987V11.6987C23.6 11.9987 23.5 12.1987 23.3 12.3987C22.9 12.7987 22.5 12.9987 22 13.0987C21.7 13.0987 21.4 12.9987 21.2 12.7987C20.7 12.2987 20.4 11.6987 20.2 10.9987C20 9.69874 20.3 8.99874 20.3 8.89874C20.7 8.19874 21.4 7.59874 22.3 7.59874C22.7 6.79874 23.9 7.09874 23.9 7.09874C24.2 7.19874 24.3 7.19874 24.4 7.39874C24.4 7.39874 24.9 6.59874 24.4 6.29874C23.9 5.99874 22.8 5.89874 22.8 5.89874C22.8 5.39874 22 4.99874 20.4 5.29874C18.6 5.59874 18.2 4.89874 18.2 4.89874C18.1 5.79874 18.8 6.19874 19 6.39874C18.3 7.19874 17.3 8.69874 17.1 10.7987C16.9 8.69874 15.9 7.19874 15.2 6.39874C15.4 6.29874 16.1 5.79874 16 4.89874C16 4.89874 15.6 5.59874 13.8 5.29874C12.3 4.99874 11.4 5.39874 11.4 5.89874C11.4 5.89874 10.3 5.99874 9.8 6.29874C9.3 6.59874 9.8 7.39874 9.8 7.39874C9.9 7.29874 10 7.19874 10.3 7.09874C10.3 7.09874 11.5 6.79874 11.9 7.59874C12.8 7.69874 13.5 8.19874 13.9 8.89874C13.9 8.89874 14.3 9.59874 14 10.9987C13.9 11.6987 13.5 12.2987 13 12.7987C12.8 12.9987 12.5 13.1987 12.2 13.0987C11.7 12.9987 11.3 12.7987 10.9 12.3987C10.7 12.1987 10.6 11.9987 10.8 11.6987V11.5987C11.3 10.4987 10.9 9.49874 10.1 8.89874C9.5 8.49874 8.9 8.39874 8.2 8.49874C3.8 9.09874 3.6 13.5987 3.6 14.9987C3.6 18.8987 3.5 21.6987 3.5 22.1987C3.5 22.9987 3.2 23.1987 3 23.2987C3.3 23.4987 5.6 22.7987 6.1 22.0987C6.1 22.0987 6.2 21.9987 6.3 21.9987C7.7 21.6987 7.7 20.1987 7.7 19.7987C8.8 19.7987 9.3 18.4987 9.4 18.1987C9.5 17.8987 9.6 17.5987 9.6 17.2987C9.6 17.8987 10.5 18.3987 11.5 17.4987C11.5 18.4987 12.7 18.2987 13.3 17.6987C13.4 17.8987 13.7 18.3987 13.7 18.3987C13 18.4987 12.7 18.6987 12.4 18.9987C11.6 19.6987 11.6 20.7987 11.6 21.2987L10.2 22.6987C10.1 22.7987 9.9 22.8987 9.8 22.9987C8.7 21.7987 8.4 22.2987 8.4 22.2987C7.6 21.9987 7.2 22.4987 7.3 22.7987C7.5 22.5987 7.8 22.6987 8 22.7987C6.9 22.9987 7.2 23.7987 7.5 23.8987C7.5 23.6987 7.6 23.3987 7.9 23.3987C7.9 23.6987 8.1 23.7987 8.3 23.7987C8.8 23.7987 9.7 23.7987 10 24.0987C10.2 24.1987 10.1 24.6987 10.2 24.7987C10.3 24.8987 10.5 24.8987 10.6 24.8987C10.6 25.0987 10.6 25.1987 10.4 25.4987C11.2 25.5987 11.7 24.8987 11.4 24.4987C11.2 24.2987 10.7 23.7987 10.7 23.5987C10.7 23.3987 10.9 23.0987 11.1 22.8987L12.3 21.9987C12.4 21.8987 12.5 21.7987 12.7 21.7987C12.8 21.6987 13 21.6987 13.1 21.7987C13.4 21.8987 13.4 21.8987 13.5 21.7987C13.8 21.5987 14.3 21.1987 15.4 21.0987C15.3 21.0987 15.3 21.1987 15.2 21.2987C15.1 21.3987 15.1 21.4987 15 21.5987C14.9 21.6987 14.9 21.8987 14.8 22.0987C14.1 23.7987 13.4 25.3987 12.7 27.0987C12.5 27.6987 12.7 28.0987 13.2 28.3987C13.6 28.5987 14.1 28.4987 14.4 28.0987C14.3 28.3987 14.3 28.5987 14.4 28.7987C14.5 28.9987 14.7 29.1987 14.9 29.2987C15.1 29.3987 15.4 29.3987 15.6 29.3987C15.9 29.2987 16 29.1987 16.1 28.8987C16.2 29.3987 16.5 29.7987 17.1 29.7987Z" fill="white"/>
<path fill-rule="evenodd" clip-rule="evenodd" d="M45.9016 11.0987C46.8016 11.0987 48.8016 10.9987 49.9016 10.8987V12.0987C48.9016 11.9987 47.3016 11.8987 46.8016 11.8987C46.4016 11.8987 45.1016 11.8987 44.3016 11.9987V16.1987H45.2016C47.0016 16.1987 50.6016 16.4987 50.6016 19.5987C50.6016 22.0987 48.5016 23.1987 45.8016 23.1987H42.6016C42.7016 21.2987 42.7016 18.7987 42.7016 16.6987C42.7016 14.7987 42.7016 11.8987 42.6016 10.9987C43.7016 10.9987 45.5016 11.0987 45.9016 11.0987ZM44.3016 22.1987H45.7016C47.7016 22.1987 48.8016 21.2987 48.8016 19.4987C48.8016 17.5987 47.4016 16.9987 44.2016 16.9987V22.1987H44.3016ZM52.5016 15.5987C53.2016 14.7987 54.4016 14.3987 55.4016 14.3987C57.2016 14.3987 58.4016 15.2987 58.4016 17.3987V21.5987C58.4016 22.4987 58.6016 22.6987 58.9016 22.6987C59.0016 22.6987 59.2016 22.6987 59.3016 22.5987L59.4016 22.9987C58.9016 23.2987 58.4016 23.2987 58.1016 23.2987C57.5016 23.2987 57.2016 22.9987 57.1016 22.5987L57.0016 22.1987C56.1016 22.8987 55.1016 23.2987 54.3016 23.2987C52.8016 23.2987 51.8016 22.4987 51.8016 21.0987C51.8016 19.5987 52.9016 18.8987 54.5016 18.5987L56.2016 18.2987C56.8016 18.1987 57.1016 17.9987 57.1016 17.5987C57.1016 15.7987 56.3016 15.2987 55.0016 15.2987C54.0016 15.2987 53.3016 15.5987 52.7016 16.6987H52.5016V15.5987ZM57.1016 18.7987L56.0016 18.9987C54.8016 19.1987 53.4016 19.5987 53.4016 20.8987C53.4016 21.8987 53.9016 22.3987 55.0016 22.3987C55.7016 22.3987 56.3016 22.1987 57.0016 21.3987V18.7987H57.1016ZM61.8016 14.6987H62.6016C62.5016 15.9987 62.4016 18.0987 62.4016 18.1987C63.1016 18.1987 64.1016 18.2987 64.7016 18.2987C65.3016 18.2987 66.3016 18.2987 66.8016 18.1987C66.8016 18.0987 66.8016 15.9987 66.7016 14.6987H68.4016C68.3016 15.9987 68.2016 18.0987 68.2016 18.9987C68.2016 19.6987 68.2016 21.9987 68.4016 23.2987H66.7016C66.8016 21.9987 66.8016 19.6987 66.8016 19.1987C66.1016 19.0987 65.0016 19.0987 64.7016 19.0987C64.2016 19.0987 63.1016 19.0987 62.4016 19.1987C62.4016 19.7987 62.4016 21.9987 62.6016 23.2987H60.9016C61.0016 21.9987 61.1016 19.6987 61.1016 18.9987C61.1016 18.0987 61.1016 15.9987 60.9016 14.6987H61.8016ZM71.5016 14.6987H72.3016C72.2016 15.9987 72.2016 18.0987 72.2016 18.3987H72.5016C73.1016 18.3987 75.9016 15.1987 76.2016 14.6987H77.8016L73.8016 18.2987C74.3016 18.8987 77.0016 21.8987 78.2016 23.1987H76.1016C75.5016 22.1987 73.6016 19.9987 72.5016 18.7987H72.2016C72.2016 19.3987 72.2016 21.8987 72.3016 23.1987H70.6016C70.7016 21.8987 70.8016 19.5987 70.8016 18.8987C70.8016 17.9987 70.8016 15.8987 70.6016 14.5987C70.9016 14.6987 71.2016 14.6987 71.5016 14.6987ZM85.5016 10.9987C86.1016 10.9987 86.8016 10.8987 87.3016 10.8987C90.4016 10.8987 91.6016 11.7987 91.6016 13.9987C91.6016 16.6987 89.3016 17.5987 86.5016 17.5987C86.3016 17.5987 85.7016 17.5987 85.4016 17.4987V20.3987C85.4016 21.1987 85.4016 22.2987 85.5016 23.0987H83.7016C83.8016 21.1987 83.8016 18.6987 83.8016 16.5987C83.8016 14.6987 83.8016 11.7987 83.7016 10.8987C84.4016 10.8987 85.1016 10.9987 85.5016 10.9987ZM86.2016 16.6987C88.6016 16.6987 89.9016 15.7987 89.9016 13.9987C89.9016 12.2987 88.6016 11.8987 86.9016 11.8987H85.4016V16.5987C85.7016 16.6987 86.0016 16.6987 86.2016 16.6987ZM100.402 18.8987C100.402 21.4987 98.7016 23.3987 96.1016 23.3987C93.5016 23.3987 91.9016 21.4987 91.9016 19.0987C91.9016 16.2987 93.7016 14.4987 96.3016 14.4987C98.8016 14.4987 100.402 16.2987 100.402 18.8987ZM93.5016 18.9987C93.5016 20.8987 94.3016 22.6987 96.1016 22.6987C97.8016 22.6987 98.8016 20.9987 98.8016 18.7987C98.8016 16.9987 98.1016 15.0987 96.2016 15.0987C94.4016 15.0987 93.5016 16.9987 93.5016 18.9987ZM108.602 16.4987H108.402C107.802 15.4987 107.002 15.1987 106.102 15.1987C104.102 15.1987 103.202 17.0987 103.202 18.9987C103.202 21.0987 104.402 22.7987 106.502 22.7987C107.202 22.7987 107.802 22.6987 108.802 21.5987L109.002 21.7987L108.802 22.5987C108.002 23.0987 107.102 23.3987 106.002 23.3987C103.402 23.3987 101.702 21.5987 101.702 18.9987C101.702 16.2987 103.602 14.5987 106.302 14.5987C107.202 14.5987 108.102 14.7987 109.202 15.2987L108.602 16.4987ZM117.202 16.4987H117.002C116.402 15.4987 115.602 15.1987 114.702 15.1987C112.702 15.1987 111.802 17.0987 111.802 18.9987C111.802 21.0987 113.002 22.7987 115.102 22.7987C115.802 22.7987 116.402 22.6987 117.402 21.5987L117.502 21.7987L117.302 22.5987C116.502 23.0987 115.602 23.3987 114.502 23.3987C111.902 23.3987 110.202 21.5987 110.202 18.9987C110.202 16.2987 112.102 14.5987 114.802 14.5987C115.702 14.5987 116.602 14.7987 117.702 15.2987L117.202 16.4987ZM119.702 23.0987H119.202C119.302 21.7987 119.402 19.4987 119.402 18.7987C119.402 17.8987 119.402 15.7987 119.202 14.4987H120.902C120.802 15.7987 120.702 17.8987 120.702 18.7987V20.9987C121.602 19.8987 124.902 15.6987 125.702 14.5987H126.802C126.702 15.8987 126.602 17.9987 126.602 18.8987C126.602 19.5987 126.602 21.8987 126.802 23.1987H125.102C125.202 21.8987 125.302 19.5987 125.302 18.8987V16.5987C124.202 17.7987 121.102 21.6987 120.202 23.1987C120.002 23.0987 119.802 23.0987 119.702 23.0987ZM129.202 23.0987H128.702C128.802 21.7987 128.802 19.4987 128.802 18.7987C128.802 17.8987 128.802 15.7987 128.702 14.4987H130.402C130.202 15.8987 130.202 17.9987 130.202 18.8987V21.0987C131.102 19.9987 134.402 15.7987 135.202 14.6987H136.302C136.202 15.8987 136.202 17.9987 136.202 18.8987C136.202 19.5987 136.202 21.8987 136.302 23.1987H134.602C134.702 21.8987 134.702 19.5987 134.702 18.8987V16.5987C133.602 17.7987 130.502 21.6987 129.602 23.1987C129.502 23.0987 129.402 23.0987 129.202 23.0987Z" fill="white"/>
</g>
<defs>
<clipPath id="clip0_736_11410">
<rect width="136.3" height="34.2" fill="white"/>
</clipPath>
</defs>
</svg>
