<svg width="121" height="24" viewBox="0 0 121 24" fill="none" xmlns="http://www.w3.org/2000/svg">
<path d="M11.136 4.544V0.223999C15.392 0.416 21.312 3.136 21.312 12C21.312 20.128 16.064 23.584 11.136 23.776V19.456C13.76 19.232 16.448 17.024 16.448 12C16.448 6.56 13.44 4.768 11.136 4.544ZM10.176 0.223999V4.544C7.776 4.768 4.864 6.656 4.864 12C4.864 16.896 7.488 19.2 10.176 19.456V23.776C5.12 23.552 0 19.904 0 12C0 3.36 5.728 0.416 10.176 0.223999Z" fill="white"/>
<path d="M32.5628 0.799999V4.96H28.8507V23.2H24.1787V0.799999H32.5628ZM33.5548 4.96V0.799999H41.9388V23.2H37.2668V4.96H33.5548Z" fill="white"/>
<path d="M55.4365 0.799999V4.96H52.7165V9.664C52.7165 15.488 52.3325 18.208 50.8605 20.288C49.6125 22.048 47.7565 23.2 44.4925 23.2V19.04C48.0445 19.04 48.0445 16 48.0445 9.152V0.799999H55.4365ZM56.4285 4.96V0.799999H63.8525V23.2H59.1805V4.96H56.4285Z" fill="white"/>
<path d="M73.0547 2.272L75.2948 8.672L72.9908 16.096H77.9188L79.2308 19.808H71.7747L70.6868 23.2H66.0788L73.0547 2.272ZM73.5348 0.799999H78.3988L86.3027 23.2H81.4388L73.5348 0.799999Z" fill="white"/>
<path d="M96.3027 4.96V0.799999H101.615V4.96H96.3027ZM89.7108 4.96H84.3988V0.799999H89.7108V4.96ZM90.6708 0.799999H95.3428V23.2H90.6708V0.799999Z" fill="white"/>
<path d="M106.992 2.272L109.232 8.672L106.928 16.096H111.856L113.168 19.808H105.712L104.624 23.2H100.016L106.992 2.272ZM107.472 0.799999H112.336L120.24 23.2H115.376L107.472 0.799999Z" fill="white"/>
</svg>
