<svg width="32" height="24" viewBox="0 0 32 24" fill="none" xmlns="http://www.w3.org/2000/svg">
<g clip-path="url(#clip0_760_10348)">
<path d="M6.09989 23.9474V22.3546C6.09989 21.7454 5.72875 21.3464 5.09164 21.3464C4.77308 21.3464 4.42669 21.4515 4.18855 21.7979C4.00298 21.5072 3.737 21.3464 3.33803 21.3464C3.07205 21.3464 2.80607 21.4268 2.59576 21.7175V21.399H2.03906V23.9474H2.59576V22.5402C2.59576 22.0887 2.83391 21.8753 3.20504 21.8753C3.57618 21.8753 3.76174 22.1134 3.76174 22.5402V23.9474H4.31844V22.5402C4.31844 22.0887 4.58442 21.8753 4.92772 21.8753C5.29886 21.8753 5.48442 22.1134 5.48442 22.5402V23.9474H6.09989ZM14.3576 21.399H13.4545V20.6289H12.8978V21.399H12.3937V21.9031H12.8978V23.0722C12.8978 23.6567 13.136 24 13.7731 24C14.0112 24 14.2772 23.9196 14.4628 23.8144L14.3019 23.335C14.1411 23.4402 13.9556 23.468 13.8226 23.468C13.5566 23.468 13.4514 23.3072 13.4514 23.0443V21.9031H14.3545V21.399H14.3576ZM19.0834 21.3433C18.7648 21.3433 18.5514 21.5041 18.4184 21.7144V21.3959H17.8617V23.9443H18.4184V22.5093C18.4184 22.0856 18.604 21.8443 18.9504 21.8443C19.0556 21.8443 19.1885 21.8722 19.2968 21.8969L19.4576 21.3649C19.3463 21.3433 19.1885 21.3433 19.0834 21.3433ZM11.9422 21.6093C11.6762 21.4237 11.305 21.3433 10.9061 21.3433C10.269 21.3433 9.84525 21.6619 9.84525 22.166C9.84525 22.5897 10.1638 22.8309 10.7205 22.9082L10.9865 22.9361C11.2772 22.9887 11.438 23.0691 11.438 23.2021C11.438 23.3876 11.2246 23.5206 10.8535 23.5206C10.4824 23.5206 10.1885 23.3876 10.003 23.2546L9.737 23.6783C10.0277 23.8917 10.4267 23.9969 10.8257 23.9969C11.5679 23.9969 11.9947 23.6505 11.9947 23.1742C11.9947 22.7227 11.6483 22.4845 11.1195 22.4041L10.8535 22.3763C10.6154 22.3484 10.4298 22.2959 10.4298 22.1381C10.4298 21.9526 10.6154 21.8474 10.9092 21.8474C11.2277 21.8474 11.5463 21.9804 11.7071 22.0608L11.9422 21.6093ZM26.7535 21.3433C26.4349 21.3433 26.2215 21.5041 26.0885 21.7144V21.3959H25.5318V23.9443H26.0885V22.5093C26.0885 22.0856 26.2741 21.8443 26.6205 21.8443C26.7257 21.8443 26.8587 21.8722 26.9669 21.8969L27.1277 21.3711C27.0195 21.3433 26.8617 21.3433 26.7535 21.3433ZM19.6401 22.6732C19.6401 23.4433 20.1721 24 20.9947 24C21.3659 24 21.6318 23.9196 21.8978 23.7093L21.6318 23.2577C21.4184 23.4186 21.2081 23.4959 20.9669 23.4959C20.5154 23.4959 20.1968 23.1773 20.1968 22.6732C20.1968 22.1938 20.5154 21.8753 20.9669 21.8505C21.205 21.8505 21.4184 21.9309 21.6318 22.0887L21.8978 21.6371C21.6318 21.4237 21.3659 21.3464 20.9947 21.3464C20.1721 21.3433 19.6401 21.9031 19.6401 22.6732ZM24.7896 22.6732V21.399H24.2329V21.7175C24.0473 21.4794 23.7813 21.3464 23.4349 21.3464C22.7174 21.3464 22.1607 21.9031 22.1607 22.6732C22.1607 23.4433 22.7174 24 23.4349 24C23.8061 24 24.0721 23.867 24.2329 23.6289V23.9474H24.7896V22.6732ZM22.7452 22.6732C22.7452 22.2216 23.036 21.8505 23.5154 21.8505C23.9669 21.8505 24.2855 22.1969 24.2855 22.6732C24.2855 23.1247 23.9669 23.4959 23.5154 23.4959C23.0391 23.468 22.7452 23.1216 22.7452 22.6732ZM16.0834 21.3433C15.3411 21.3433 14.8092 21.8753 14.8092 22.6701C14.8092 23.468 15.3411 23.9969 16.1112 23.9969C16.4824 23.9969 16.8535 23.8917 17.1473 23.6505L16.8813 23.2515C16.6679 23.4124 16.4019 23.5175 16.1391 23.5175C15.7927 23.5175 15.4494 23.3567 15.369 22.9082H17.2525C17.2525 22.8278 17.2525 22.7753 17.2525 22.6948C17.2772 21.8753 16.7978 21.3433 16.0834 21.3433ZM16.0834 21.8227C16.4298 21.8227 16.6679 22.0361 16.7205 22.432H15.3937C15.4463 22.0887 15.6844 21.8227 16.0834 21.8227ZM29.9143 22.6732V20.3907H29.3576V21.7175C29.1721 21.4794 28.9061 21.3464 28.5597 21.3464C27.8422 21.3464 27.2855 21.9031 27.2855 22.6732C27.2855 23.4433 27.8422 24 28.5597 24C28.9308 24 29.1968 23.867 29.3576 23.6289V23.9474H29.9143V22.6732ZM27.87 22.6732C27.87 22.2216 28.1607 21.8505 28.6401 21.8505C29.0916 21.8505 29.4102 22.1969 29.4102 22.6732C29.4102 23.1247 29.0916 23.4959 28.6401 23.4959C28.1607 23.468 27.87 23.1216 27.87 22.6732ZM9.23288 22.6732V21.399H8.67618V21.7175C8.49061 21.4794 8.22463 21.3464 7.87824 21.3464C7.16071 21.3464 6.60401 21.9031 6.60401 22.6732C6.60401 23.4433 7.16071 24 7.87824 24C8.24937 24 8.51535 23.867 8.67618 23.6289V23.9474H9.23288V22.6732ZM7.1638 22.6732C7.1638 22.2216 7.45453 21.8505 7.93391 21.8505C8.38545 21.8505 8.70401 22.1969 8.70401 22.6732C8.70401 23.1247 8.38545 23.4959 7.93391 23.4959C7.45453 23.468 7.1638 23.1216 7.1638 22.6732Z" fill="black"/>
<path d="M20.1207 2.04433H11.7578V17.0691H20.1207V2.04433Z" fill="#FF5A00"/>
<path d="M12.3144 9.5567C12.3144 6.50412 13.7495 3.79485 15.9515 2.04433C14.3309 0.770103 12.2866 0 10.0567 0C4.77423 0 0.5 4.27423 0.5 9.5567C0.5 14.8392 4.77423 19.1134 10.0567 19.1134C12.2866 19.1134 14.3309 18.3433 15.9515 17.0691C13.7464 15.3433 12.3144 12.6093 12.3144 9.5567Z" fill="#EB001B"/>
<path d="M31.4047 9.5567C31.4047 14.8392 27.1304 19.1134 21.848 19.1134C19.6181 19.1134 17.5737 18.3433 15.9531 17.0691C18.183 15.3155 19.5902 12.6093 19.5902 9.5567C19.5902 6.50412 18.1552 3.79485 15.9531 2.04433C17.5707 0.770103 19.615 0 21.8449 0C27.1304 0 31.4047 4.30206 31.4047 9.5567Z" fill="#F79E1B"/>
</g>
<defs>
<clipPath id="clip0_760_10348">
<rect width="30.9031" height="24" fill="white" transform="translate(0.5)"/>
</clipPath>
</defs>
</svg>
