<svg width="44" height="14" viewBox="0 0 44 14" fill="none" xmlns="http://www.w3.org/2000/svg">
<path fill-rule="evenodd" clip-rule="evenodd" d="M7.28803 1.91011C7.62871 1.90807 8.64119 1.81688 9.07005 3.2643C9.35894 4.2393 9.81912 5.8364 10.4506 8.05559H10.7078C11.385 5.71596 11.8502 4.11887 12.1034 3.2643C12.5367 1.8018 13.6201 1.91014 14.0534 1.91014L17.3967 1.91014V12.3101H13.9891V6.18124H13.7606L11.8611 12.3101H9.29731L7.39777 6.1767H7.16927V12.3101H3.76172V1.91014L7.28803 1.91011ZM22.2898 1.91014V8.04358H22.5617L24.8723 3.0001C25.3208 1.99643 26.2768 1.91014 26.2768 1.91014H29.5743V12.3101H26.0956V6.1767H25.8237L23.5584 11.2202C23.1099 12.2193 22.1086 12.3101 22.1086 12.3101H18.8111V1.91014H22.2898ZM41.5983 6.85229C41.113 8.22736 39.5892 9.21214 37.902 9.21214H34.2539V12.3101H30.9459V6.85229H41.5983Z" fill="#0F754E"/>
<path fill-rule="evenodd" clip-rule="evenodd" d="M38.0626 1.91014H30.7734C30.9469 4.22553 32.9409 6.20766 35.005 6.20766H41.8292C42.223 4.2833 40.8673 1.91014 38.0626 1.91014Z" fill="url(#paint0_linear_760_10354)"/>
<defs>
<linearGradient id="paint0_linear_760_10354" x1="41.8961" y1="4.61347" x2="30.7734" y2="4.61347" gradientUnits="userSpaceOnUse">
<stop stop-color="#1F5CD7"/>
<stop offset="1" stop-color="#02AEFF"/>
</linearGradient>
</defs>
</svg>
