<svg width="49" height="24" viewBox="0 0 49 24" fill="none" xmlns="http://www.w3.org/2000/svg">
<g clip-path="url(#clip0_760_10383)">
<path d="M42.0711 6.85074V12.7183H39.9759V8.60234H37.9585V12.7183H35.8633V6.85034H42.0711V6.85074Z" fill="black"/>
<path fill-rule="evenodd" clip-rule="evenodd" d="M31.5602 12.9281C33.4358 12.9281 34.8286 11.7781 34.8286 10.0347C34.8286 8.34734 33.801 7.25174 32.0836 7.25174C31.291 7.25174 30.637 7.53074 30.1444 8.01214C30.262 7.01714 31.1034 6.29074 32.0298 6.29074C32.2436 6.29074 33.8532 6.28734 33.8532 6.28734L34.7634 4.54554C34.7634 4.54554 32.7426 4.59154 31.8032 4.59154C29.6568 4.62894 28.207 6.57994 28.207 8.94954C28.207 11.7101 29.621 12.9281 31.5602 12.9281ZM31.5716 8.79454C32.268 8.79454 32.7508 9.25214 32.7508 10.0345C32.7508 10.7387 32.3218 11.3189 31.5716 11.3205C30.854 11.3205 30.3712 10.7829 30.3712 10.0465C30.3712 9.26394 30.854 8.79454 31.5716 8.79454Z" fill="black"/>
<path d="M26.5024 10.7539C26.5024 10.7539 26.0076 11.0391 25.2686 11.0931C24.419 11.1183 23.662 10.5817 23.662 9.62834C23.662 8.69834 24.33 8.16534 25.2472 8.16534C25.8096 8.16534 26.5536 8.55514 26.5536 8.55514C26.5536 8.55514 27.098 7.55614 27.38 7.05654C26.8636 6.66514 26.1758 6.45054 25.3758 6.45054C23.3568 6.45054 21.793 7.76694 21.793 9.61654C21.793 11.4897 23.2628 12.7755 25.3758 12.7367C25.9664 12.7147 26.7812 12.5073 27.2778 12.1883L26.5024 10.7539Z" fill="black"/>
<path d="M0.738281 5.224L3.64468 10.419V13.5878L0.741681 18.7726L0.738281 5.224Z" fill="#5B57A2"/>
<path d="M11.8984 8.5286L14.6218 6.8594L20.1954 6.8542L11.8984 11.937V8.5286Z" fill="#D90751"/>
<path d="M11.8822 5.1934L11.8976 12.0714L8.98438 10.2814V0L11.8822 5.1934Z" fill="#FAB718"/>
<path d="M20.1946 6.8542L14.6208 6.8594L11.8822 5.1934L8.98438 0L20.1946 6.8542Z" fill="#ED6F26"/>
<path d="M11.8976 18.8014V15.4644L8.98438 13.7084L8.98597 24L11.8976 18.8014Z" fill="#63B22F"/>
<path d="M14.6143 17.1474L3.64448 10.419L0.738281 5.224L20.1829 17.1406L14.6143 17.1474Z" fill="#1487C9"/>
<path d="M8.98438 24L11.8956 18.8014L14.6122 17.1474L20.1808 17.1406L8.98438 24Z" fill="#017F36"/>
<path d="M0.742188 18.7726L9.00879 13.7086L6.22959 12.0034L3.64519 13.5878L0.742188 18.7726Z" fill="#984995"/>
<path d="M23.6636 16.6673C23.5996 16.7489 23.5154 16.8105 23.4144 16.8521C23.3108 16.8943 23.1999 16.9158 23.088 16.9153C22.9767 16.9168 22.8661 16.8983 22.7614 16.8605C22.6674 16.8264 22.5814 16.7731 22.509 16.7041C22.4375 16.635 22.3813 16.5516 22.3442 16.4593C22.304 16.3583 22.284 16.2503 22.2852 16.1415C22.2852 16.0335 22.3038 15.9335 22.3424 15.8387C22.3794 15.7437 22.4332 15.6623 22.5006 15.5939C22.568 15.5241 22.6488 15.4709 22.7396 15.4293C22.8322 15.3893 22.9332 15.3677 23.0442 15.3677C23.1638 15.3677 23.2748 15.3827 23.3758 15.4125C23.4768 15.4425 23.5626 15.4925 23.6332 15.5625L23.5104 15.7705C23.451 15.7167 23.3811 15.6758 23.305 15.6505C23.2327 15.6272 23.1572 15.6155 23.0812 15.6157C23.014 15.6157 22.95 15.6289 22.8878 15.6539C22.8265 15.6786 22.7705 15.7148 22.7228 15.7605C22.6741 15.8076 22.6356 15.8642 22.61 15.9269C22.5814 15.9917 22.568 16.0633 22.568 16.1431C22.568 16.2247 22.583 16.2979 22.6116 16.3611C22.6404 16.4261 22.679 16.4811 22.7278 16.5275C22.7766 16.5743 22.8338 16.6091 22.8994 16.6325C22.9652 16.6575 23.0342 16.6691 23.1082 16.6691C23.199 16.6691 23.2816 16.6507 23.3522 16.6157C23.4222 16.5819 23.485 16.5351 23.5374 16.4777L23.6636 16.6673ZM24.0102 16.8803V15.3993H24.2762V16.5027L25.1412 15.3993H25.4072V16.8805H25.1412V15.7771L24.2762 16.8805L24.0102 16.8803ZM27.1692 16.6673C27.1038 16.7496 27.0179 16.8133 26.9202 16.8521C26.8165 16.8943 26.7056 16.9158 26.5936 16.9153C26.4824 16.9168 26.3718 16.8983 26.2672 16.8605C26.1731 16.8264 26.0871 16.7731 26.0146 16.7041C25.9431 16.635 25.8869 16.5516 25.8498 16.4593C25.8096 16.3583 25.7896 16.2503 25.7908 16.1415C25.7908 16.0335 25.8094 15.9335 25.848 15.8387C25.8852 15.7437 25.939 15.6623 26.0062 15.5939C26.0736 15.5241 26.1544 15.4709 26.2452 15.4293C26.3411 15.3871 26.445 15.3661 26.5498 15.3677C26.6694 15.3677 26.7804 15.3827 26.8814 15.4125C26.9824 15.4425 27.0682 15.4925 27.139 15.5625L27.016 15.7705C26.9567 15.7167 26.8868 15.6758 26.8108 15.6505C26.7385 15.6273 26.663 15.6155 26.587 15.6157C26.4533 15.6162 26.3249 15.668 26.2284 15.7605C26.1801 15.8079 26.1417 15.8645 26.1156 15.9269C26.087 15.9917 26.0736 16.0633 26.0736 16.1431C26.0736 16.2247 26.0888 16.2979 26.1174 16.3611C26.146 16.4261 26.1846 16.4811 26.2334 16.5275C26.2822 16.5743 26.3396 16.6091 26.4052 16.6325C26.4708 16.6557 26.5398 16.6691 26.6138 16.6691C26.7048 16.6691 26.7856 16.6507 26.8578 16.6157C26.9278 16.5819 26.9906 16.5351 27.043 16.4777L27.1692 16.6673ZM27.3056 15.3993H28.6704V15.6623H28.1218V16.8803H27.8558V15.6623H27.3072V15.3993H27.3056Z" fill="black"/>
<path fill-rule="evenodd" clip-rule="evenodd" d="M29.9126 16.8655C30.0136 16.8339 30.0994 16.7855 30.1734 16.7191L30.0926 16.5127C30.0438 16.5561 29.9782 16.5927 29.8992 16.6227C29.82 16.6527 29.7308 16.6675 29.6332 16.6675C29.4868 16.6675 29.3656 16.6293 29.2696 16.5511C29.1738 16.4727 29.1216 16.3631 29.1098 16.2231H30.261C30.2728 16.1715 30.2778 16.1133 30.2778 16.0451C30.2778 15.9435 30.2592 15.8521 30.2222 15.7689C30.1878 15.6881 30.1375 15.6151 30.0742 15.5541C30.0101 15.4938 29.9346 15.4468 29.852 15.4161C29.7656 15.3826 29.6737 15.3657 29.581 15.3661C29.4564 15.3661 29.347 15.3877 29.2512 15.4277C29.1607 15.4658 29.0787 15.5219 29.0104 15.5925C28.9441 15.6628 28.8932 15.7461 28.8608 15.8371C28.8253 15.9341 28.8076 16.0367 28.8086 16.1399C28.8086 16.2565 28.8288 16.3629 28.8658 16.4579C28.9018 16.55 28.9569 16.6333 29.0274 16.7025C29.0964 16.7705 29.1804 16.8223 29.2798 16.8589C29.3863 16.8967 29.4985 16.9152 29.6114 16.9137C29.7137 16.9131 29.8153 16.8967 29.9126 16.8655ZM29.2394 15.7255C29.3218 15.6507 29.4312 15.6141 29.5692 15.6141C29.6988 15.6141 29.8032 15.6491 29.879 15.7191C29.9548 15.7889 29.995 15.8855 30.0018 16.0085H29.093C29.1059 15.8996 29.1579 15.7989 29.2394 15.7255Z" fill="black"/>
<path d="M30.6367 15.3993H30.8791L31.4547 16.1333L31.9999 15.3993H32.2355V16.8805H31.9697V15.8005L31.4513 16.4877H31.4411L30.9027 15.8003V16.8803H30.6367V15.3993Z" fill="black"/>
<path fill-rule="evenodd" clip-rule="evenodd" d="M32.9622 15.4043C32.8815 15.4254 32.8044 15.4585 32.7334 15.5023L32.804 15.7123C32.8646 15.6823 32.9252 15.6573 32.9858 15.6357C33.0464 15.6139 33.1238 15.6039 33.2164 15.6039C33.2904 15.6039 33.3494 15.6157 33.3948 15.6389C33.4402 15.6605 33.4738 15.6939 33.4974 15.7339C33.521 15.7739 33.5362 15.8237 33.5446 15.8819C33.553 15.9401 33.5564 16.0033 33.5564 16.0717C33.502 16.0338 33.44 16.0082 33.3746 15.9967C33.3114 15.9842 33.2472 15.9775 33.1828 15.9767C33.1036 15.9767 33.0296 15.9885 32.9588 16.0083C32.8882 16.0283 32.8276 16.0583 32.7788 16.0983C32.729 16.1383 32.6888 16.1888 32.661 16.2463C32.6314 16.3093 32.6164 16.3782 32.6172 16.4477C32.6172 16.5925 32.6594 16.7057 32.7434 16.7857C32.8276 16.8655 32.9386 16.9053 33.0766 16.9053C33.2012 16.9053 33.3006 16.8837 33.3762 16.8405C33.452 16.7971 33.5126 16.7473 33.5564 16.6907V16.8821H33.8054V15.9735C33.8054 15.7803 33.7634 15.6307 33.6776 15.5257C33.5934 15.4209 33.4436 15.3677 33.2316 15.3677C33.1372 15.3677 33.048 15.3809 32.9622 15.4043ZM33.4068 16.6043C33.3462 16.6475 33.267 16.6673 33.1694 16.6673C33.0836 16.6673 33.0162 16.6457 32.9692 16.6041C32.922 16.5609 32.8984 16.5043 32.8984 16.4343C32.8984 16.3929 32.9068 16.3579 32.9254 16.3263C32.944 16.2947 32.9692 16.2697 32.9978 16.2497C33.0291 16.2288 33.0638 16.2136 33.1004 16.2047C33.1392 16.1947 33.1778 16.1897 33.2182 16.1897C33.3496 16.1897 33.4622 16.2213 33.5548 16.2879V16.4759C33.5112 16.5248 33.4614 16.5681 33.4068 16.6043ZM36.1534 14.8783C36.2072 14.8535 36.2576 14.8119 36.3048 14.7503L36.16 14.5423C36.123 14.5923 36.081 14.6271 36.0338 14.6455C35.9838 14.6651 35.9319 14.6796 35.879 14.6887L35.8286 14.6977C35.7848 14.7053 35.7378 14.7137 35.6872 14.7221C35.6061 14.7371 35.527 14.7617 35.4516 14.7953C35.332 14.8469 35.2362 14.9167 35.1638 15.0049C35.0914 15.0931 35.0342 15.1929 34.9954 15.3029C34.9561 15.4144 34.9296 15.5299 34.9164 15.6473C34.9028 15.7673 34.8962 15.8819 34.8962 15.9917C34.8962 16.1333 34.9146 16.2613 34.9516 16.3761C34.9888 16.4911 35.0408 16.5875 35.1098 16.6657C35.1788 16.7457 35.2614 16.8057 35.359 16.8489C35.4566 16.8921 35.566 16.9137 35.6888 16.9137C35.8016 16.9137 35.906 16.8921 36.0002 16.8521C36.091 16.8137 36.1734 16.7578 36.2426 16.6875C36.3098 16.6191 36.3638 16.5375 36.4008 16.4461C36.4394 16.3545 36.458 16.2563 36.458 16.1531C36.458 16.0417 36.4412 15.9403 36.4092 15.8503C36.3797 15.7645 36.3328 15.6858 36.2712 15.6191C36.2096 15.5536 36.1343 15.5024 36.0506 15.4691C35.9585 15.4329 35.8602 15.4148 35.7612 15.4159C35.6972 15.4159 35.635 15.4243 35.5744 15.4409C35.5155 15.4576 35.4589 15.4816 35.406 15.5125C35.3547 15.5419 35.3077 15.5783 35.2664 15.6205C35.226 15.6623 35.1924 15.7089 35.1688 15.7621H35.162C35.1672 15.6939 35.1756 15.6241 35.1906 15.5525C35.2058 15.4809 35.2276 15.4125 35.2564 15.3477C35.285 15.2829 35.322 15.2245 35.3674 15.1713C35.4161 15.1176 35.4758 15.0751 35.5424 15.0465C35.6157 15.0116 35.6932 14.9865 35.773 14.9717L35.8258 14.9621C35.8784 14.9525 35.9286 14.9433 35.9766 14.9333C36.0406 14.9201 36.0994 14.9031 36.1534 14.8783ZM35.2176 16.3013C35.1916 16.2173 35.1791 16.1297 35.1806 16.0417C35.1919 15.9913 35.2124 15.9433 35.2412 15.9003C35.2698 15.8553 35.3068 15.8155 35.3506 15.7803C35.4495 15.7029 35.5717 15.6613 35.6972 15.6623C35.8538 15.6623 35.9716 15.7105 36.054 15.8055C36.1366 15.9019 36.177 16.0217 36.177 16.1665C36.177 16.2381 36.1634 16.3031 36.14 16.3629C36.1173 16.4219 36.0829 16.4757 36.039 16.5212C35.995 16.5666 35.9424 16.6028 35.8842 16.6275C35.8236 16.6541 35.7578 16.6675 35.6838 16.6675C35.6098 16.6675 35.5424 16.6525 35.4802 16.6225C35.4184 16.5931 35.3638 16.5505 35.3202 16.4977C35.2746 16.4389 35.2399 16.3724 35.2176 16.3013ZM38.4978 15.3993H38.2318V16.8805H38.4978V15.3993ZM36.8416 15.3993H37.1076V15.8437H37.3534C37.4694 15.8437 37.5636 15.8587 37.6394 15.8869C37.7152 15.9153 37.7758 15.9535 37.8212 16.0001C37.8666 16.0467 37.8986 16.1017 37.9172 16.1631C37.9356 16.2247 37.9458 16.2879 37.9458 16.3545C37.9458 16.4211 37.9356 16.4845 37.9138 16.5477C37.8936 16.6109 37.8582 16.6657 37.811 16.7157C37.764 16.7657 37.7 16.8057 37.6192 16.8357C37.5384 16.8655 37.4408 16.8821 37.323 16.8821H36.84V15.3993H36.8416ZM37.1076 16.0915V16.6341H37.3012C37.4342 16.6341 37.5284 16.6109 37.5822 16.5641C37.6362 16.5175 37.663 16.4511 37.663 16.3629C37.663 16.2729 37.6344 16.2049 37.5806 16.1581C37.525 16.1115 37.4324 16.0881 37.3046 16.0881H37.1076V16.0915Z" fill="black"/>
<path d="M40.2535 16.6673C40.1895 16.7489 40.1053 16.8105 40.0043 16.8521C39.9006 16.8943 39.7897 16.9158 39.6779 16.9153C39.5666 16.9168 39.4559 16.8983 39.3513 16.8605C39.2572 16.8264 39.1713 16.7732 39.0989 16.7041C39.0273 16.635 38.9711 16.5516 38.9339 16.4593C38.8938 16.3582 38.8739 16.2503 38.8751 16.1415C38.8751 16.0335 38.8935 15.9335 38.9323 15.8387C38.9693 15.7437 39.0231 15.6623 39.0905 15.5939C39.1579 15.5241 39.2385 15.4709 39.3295 15.4293C39.4254 15.3871 39.5293 15.3661 39.6341 15.3677C39.7535 15.3677 39.8647 15.3827 39.9657 15.4125C40.0667 15.4425 40.1525 15.4925 40.2231 15.5625L40.1003 15.7705C40.0409 15.7167 39.9709 15.6758 39.8949 15.6505C39.8225 15.6272 39.747 15.6155 39.6711 15.6157C39.6039 15.6157 39.5399 15.6289 39.4775 15.6539C39.4162 15.6786 39.3603 15.7148 39.3127 15.7605C39.2643 15.8079 39.2259 15.8645 39.1999 15.9269C39.1713 15.9917 39.1579 16.0633 39.1579 16.1431C39.1579 16.2247 39.1729 16.2979 39.2015 16.3611C39.2301 16.4261 39.2689 16.4811 39.3177 16.5275C39.3665 16.5743 39.4237 16.6091 39.4893 16.6325C39.5551 16.6557 39.6241 16.6691 39.6981 16.6691C39.7889 16.6691 39.8697 16.6507 39.9421 16.6157C40.012 16.582 40.0749 16.5351 40.1273 16.4777L40.2535 16.6673ZM40.3897 15.3993H41.7547V15.6623H41.2059V16.8803H40.9401V15.6623H40.3915V15.3993H40.3897Z" fill="black"/>
<path fill-rule="evenodd" clip-rule="evenodd" d="M42.3129 15.3995H42.0469V17.5395H42.3129V16.8123C42.3667 16.8473 42.4307 16.8723 42.5047 16.8889C42.5787 16.9055 42.6561 16.9137 42.7353 16.9137C42.8531 16.9137 42.9591 16.8921 43.0551 16.8523C43.1471 16.8129 43.2306 16.7559 43.3007 16.6843C43.3697 16.6125 43.4219 16.5293 43.4589 16.4311C43.4959 16.3331 43.5145 16.2281 43.5145 16.1167C43.5145 16.0067 43.4977 15.9053 43.4657 15.8137C43.4355 15.7267 43.3887 15.6465 43.3277 15.5775C43.2678 15.5103 43.1936 15.4574 43.1105 15.4227C43.0196 15.3837 42.9215 15.3644 42.8227 15.3661C42.7185 15.3661 42.6209 15.3861 42.5283 15.4261C42.4357 15.4661 42.3633 15.5141 42.3129 15.5741V15.3995ZM42.4981 15.6741C42.5739 15.6341 42.6563 15.6141 42.7455 15.6141C42.8229 15.6141 42.8919 15.6257 42.9543 15.6507C43.0149 15.6757 43.0653 15.7107 43.1075 15.7573C43.1495 15.8039 43.1815 15.8573 43.2017 15.9203C43.2235 15.9835 43.2337 16.0519 43.2337 16.1267C43.2337 16.2067 43.2201 16.2781 43.1967 16.3447C43.1746 16.4079 43.1396 16.4657 43.0939 16.5145C43.0479 16.5628 42.9923 16.6007 42.9307 16.6259C42.8619 16.6547 42.788 16.6689 42.7135 16.6675C42.6413 16.6675 42.5739 16.6593 42.5099 16.6427C42.4398 16.6237 42.3733 16.5933 42.3131 16.5527V15.8187C42.3601 15.7623 42.4225 15.7141 42.4981 15.6741ZM45.5543 15.3993H45.2883V16.8805H45.5543V15.3993ZM43.8965 15.3993H44.1625V15.8437H44.4081C44.5243 15.8437 44.6185 15.8587 44.6943 15.8869C44.7701 15.9153 44.8307 15.9535 44.8761 16.0001C44.9215 16.0467 44.9535 16.1017 44.9719 16.1631C44.9905 16.2247 45.0005 16.2879 45.0005 16.3545C45.0005 16.4211 44.9905 16.4845 44.9687 16.5477C44.9485 16.6109 44.9131 16.6657 44.8659 16.7157C44.8189 16.7657 44.7549 16.8057 44.6741 16.8357C44.5933 16.8655 44.4957 16.8821 44.3779 16.8821H43.8949V15.3993H43.8965ZM44.1643 16.0915V16.6341H44.3579C44.4907 16.6341 44.5851 16.6109 44.6389 16.5641C44.6927 16.5175 44.7197 16.4511 44.7197 16.3629C44.7197 16.2729 44.6911 16.2049 44.6373 16.1581C44.5817 16.1115 44.4891 16.0881 44.3613 16.0881H44.1643V16.0915Z" fill="black"/>
<path d="M46.8284 16.1133L47.3972 16.8805H47.0708L46.6314 16.2813L46.1854 16.8805H45.8758L46.4412 16.1265L45.9094 15.3993H46.236L46.6416 15.9585L47.0538 15.3993H47.3636L46.8284 16.1133ZM23.465 18.7111H22.6488V19.9459H22.3828V18.4649H23.7308V19.9459H23.465V18.7111ZM25.2404 18.7277H24.7154L24.6984 18.9773C24.68 19.1887 24.6548 19.3585 24.6194 19.4881C24.584 19.6181 24.5402 19.7179 24.4898 19.7877C24.4394 19.8577 24.3804 19.9059 24.313 19.9293C24.2435 19.9545 24.17 19.9669 24.096 19.9659L24.0758 19.7095C24.1044 19.7111 24.138 19.7045 24.175 19.6879C24.2122 19.6713 24.2492 19.6347 24.2844 19.5799C24.3198 19.5231 24.3518 19.4433 24.3804 19.3401C24.409 19.2353 24.4276 19.0989 24.4376 18.9273L24.4646 18.4663H25.5064V19.9475H25.2404V18.7277Z" fill="black"/>
<path fill-rule="evenodd" clip-rule="evenodd" d="M26.2239 18.4683C26.1379 18.4915 26.0605 18.5247 25.9949 18.5663L26.0657 18.7761C26.1263 18.7461 26.1869 18.7211 26.2473 18.6995C26.3079 18.6779 26.3855 18.6679 26.4779 18.6679C26.5521 18.6679 26.6109 18.6795 26.6563 18.7027C26.7019 18.7245 26.7355 18.7577 26.7591 18.7977C26.7825 18.8377 26.7977 18.8877 26.8061 18.9457C26.8145 19.0041 26.8179 19.0673 26.8179 19.1355C26.7635 19.0977 26.7015 19.0721 26.6361 19.0607C26.573 19.0482 26.5088 19.0415 26.4443 19.0407C26.3653 19.0407 26.2911 19.0523 26.2205 19.0723C26.1497 19.0923 26.0891 19.1223 26.0403 19.1623C25.9905 19.2023 25.9503 19.2528 25.9225 19.3103C25.893 19.3733 25.8781 19.4422 25.8789 19.5117C25.8789 19.6563 25.9209 19.7697 26.0051 19.8495C26.0891 19.9293 26.2003 19.9693 26.3383 19.9693C26.4629 19.9693 26.5621 19.9477 26.6379 19.9043C26.7135 19.8611 26.7741 19.8111 26.8179 19.7545V19.9459H27.0671V19.0373C27.0671 18.8443 27.0249 18.6945 26.9391 18.5897C26.8549 18.4847 26.7051 18.4317 26.4931 18.4317C26.4022 18.4318 26.3117 18.4443 26.2239 18.4683ZM26.6699 19.6679C26.6095 19.7113 26.5303 19.7313 26.4327 19.7313C26.3451 19.7313 26.2795 19.7097 26.2325 19.6679C26.1853 19.6247 26.1617 19.5681 26.1617 19.4983C26.1617 19.4567 26.1701 19.4217 26.1887 19.3901C26.2071 19.3585 26.2325 19.3335 26.2611 19.3135C26.2897 19.2935 26.3249 19.2785 26.3637 19.2685C26.4022 19.2586 26.4418 19.2536 26.4815 19.2537C26.6127 19.2537 26.7255 19.2853 26.8181 19.3517V19.5397C26.7744 19.5886 26.7246 19.6317 26.6699 19.6679Z" fill="black"/>
<path d="M27.3281 18.4649H28.6931V18.7277H28.1443V19.9459H27.8785V18.7279H27.3299V18.4649H27.3281Z" fill="black"/>
<path fill-rule="evenodd" clip-rule="evenodd" d="M29.9363 19.9309C30.0373 19.8993 30.1231 19.8509 30.1971 19.7845L30.1163 19.5781C30.0675 19.6215 30.0019 19.6581 29.9227 19.6881C29.8437 19.7181 29.7545 19.7329 29.6569 19.7329C29.5105 19.7329 29.3893 19.6947 29.2933 19.6165C29.1973 19.5383 29.1453 19.4285 29.1335 19.2885H30.2847C30.2963 19.2371 30.3015 19.1787 30.3015 19.1105C30.3015 19.0091 30.2829 18.9175 30.2459 18.8343C30.2114 18.7536 30.161 18.6806 30.0977 18.6197C30.0337 18.5592 29.9582 18.5122 29.8757 18.4815C29.7893 18.448 29.6973 18.4311 29.6047 18.4315C29.4801 18.4315 29.3707 18.4531 29.2749 18.4931C29.1842 18.5311 29.1023 18.5872 29.0341 18.6579C28.9678 18.7282 28.9168 18.8115 28.8843 18.9025C28.8488 18.9995 28.8311 19.1021 28.8321 19.2053C28.8321 19.3219 28.8523 19.4283 28.8893 19.5233C28.9265 19.6181 28.9819 19.6997 29.0509 19.7679C29.1199 19.8361 29.2041 19.8877 29.3035 19.9243C29.4098 19.9621 29.522 19.9808 29.6349 19.9793C29.7343 19.9793 29.8353 19.9625 29.9363 19.9309ZM29.2615 18.7893C29.3439 18.7145 29.4533 18.6779 29.5913 18.6779C29.7227 18.6779 29.8253 18.7145 29.9011 18.7827C29.9767 18.8527 30.0171 18.9491 30.0239 19.0723H29.1151C29.1279 18.9634 29.1799 18.8628 29.2615 18.7893ZM30.4311 18.4649H30.7677L31.2809 19.1789L30.7323 19.9459H30.4059L30.9813 19.1787L30.4311 18.4649ZM31.3465 18.4649H31.6125V19.9459H31.3465V18.4649ZM32.5633 19.9459L31.9777 19.1787L32.5247 18.4647H32.1947L31.6781 19.1787L32.2335 19.9459H32.5633ZM33.7785 19.9309C33.8795 19.8993 33.9653 19.8509 34.0393 19.7845L33.9585 19.5781C33.9097 19.6215 33.8441 19.6581 33.7651 19.6881C33.6859 19.7181 33.5967 19.7329 33.4991 19.7329C33.3527 19.7329 33.2315 19.6947 33.1355 19.6165C33.0397 19.5383 32.9875 19.4285 32.9757 19.2885H34.1269C34.1387 19.2371 34.1437 19.1787 34.1437 19.1105C34.1437 19.0091 34.1253 18.9175 34.0881 18.8343C34.0536 18.7536 34.0033 18.6806 33.9401 18.6197C33.876 18.5592 33.8005 18.5122 33.7179 18.4815C33.6315 18.448 33.5395 18.431 33.4469 18.4315C33.3225 18.4315 33.2131 18.4531 33.1171 18.4931C33.0265 18.5312 32.9447 18.5873 32.8765 18.6579C32.81 18.7281 32.759 18.8114 32.7267 18.9025C32.6911 18.9995 32.6734 19.1021 32.6745 19.2053C32.6745 19.3219 32.6947 19.4283 32.7317 19.5233C32.7687 19.6181 32.8243 19.6997 32.8933 19.7679C32.9623 19.8361 33.0463 19.8877 33.1457 19.9243C33.2521 19.9621 33.3643 19.9808 33.4773 19.9793C33.5795 19.9786 33.6811 19.9623 33.7785 19.9309ZM33.1037 18.7893C33.1863 18.7145 33.2957 18.6779 33.4337 18.6779C33.5633 18.6779 33.6675 18.7145 33.7433 18.7827C33.8191 18.8527 33.8595 18.9491 33.8661 19.0723H32.9573C32.9701 18.9634 33.0221 18.8628 33.1037 18.7893ZM35.2227 17.9673C35.0661 17.9673 34.9803 17.8807 34.9669 17.7077H34.7161C34.7161 17.7741 34.7279 17.8341 34.7497 17.8907C34.7717 17.9473 34.8037 17.9955 34.8457 18.0355C34.8877 18.0755 34.9417 18.1071 35.0039 18.1319C35.0661 18.1569 35.1385 18.1685 35.2209 18.1685C35.2967 18.1685 35.3641 18.1569 35.4247 18.1319C35.4853 18.1087 35.5357 18.0755 35.5795 18.0355C35.6215 17.9955 35.6553 17.9473 35.6787 17.8907C35.7023 17.8341 35.7141 17.7741 35.7141 17.7077H35.4651C35.4533 17.8807 35.3707 17.9673 35.2227 17.9673ZM34.5039 18.4647V19.9459H34.7699L35.6349 18.8425V19.9459H35.9009V18.4647H35.6349L34.7699 19.5681V18.4647H34.5039Z" fill="black"/>
</g>
<defs>
<clipPath id="clip0_760_10383">
<rect width="47.8" height="24" fill="white" transform="translate(0.738281)"/>
</clipPath>
</defs>
</svg>
