<svg display="none" xmlns="http://www.w3.org/2000/svg">

	<symbol id="burger" viewBox="0 0 24 24">
		<path d="M3 12H17M3 6H21M3 18H21" stroke-width="2" stroke-linecap="round" stroke-linejoin="round" />
	</symbol>

	<symbol id="alert" viewBox="0 0 17 19">
		<path
			d="M14.1128 7.18344C14.1193 6.2488 13.8754 5.32947 13.4066 4.52089C12.9378 3.71231 12.2611 3.04396 11.4468 2.58521C10.6324 2.12647 9.71013 1.89406 8.77564 1.91211C7.84116 1.93016 6.92853 2.19802 6.13252 2.68787C5.33651 3.17773 4.68613 3.87172 4.24889 4.6978C3.81166 5.52389 3.60351 6.45195 3.64605 7.38564C3.6886 8.31933 3.98029 9.22462 4.49085 10.0075C5.40256 11.4055 5.94233 11.9195 5.94233 13.5832C5.94233 13.7375 6.00363 13.8855 6.11273 13.9946C6.22184 14.1037 6.36982 14.165 6.52413 14.165H11.2292C11.3835 14.165 11.5315 14.1037 11.6406 13.9946C11.7497 13.8855 11.811 13.7375 11.811 13.5832C11.811 11.8794 12.4148 11.3736 13.3205 9.92447C13.8344 9.10226 14.1087 8.15303 14.1128 7.18344Z"
			fill="#ED5A9B" fill-opacity="0.1" stroke-width="2" stroke-linecap="round" stroke-linejoin="round" />
		<path d="M7.28125 17.0898L10.4745 17.0898" stroke-width="2" stroke-linecap="round" stroke-linejoin="round" />
	</symbol>

	<symbol id="coins" viewBox="0 0 20 20">
		<path
			d="M7.85201 3.4651C10.2492 1.06683 14.137 1.06776 16.5351 3.4651C18.9332 5.86244 18.9332 9.75059 16.5351 12.1489M13.9481 12.1924C13.9481 15.584 11.1989 18.3334 7.80756 18.3334C4.41622 18.3334 1.66699 15.584 1.66699 12.1924C1.66699 8.80077 4.41622 6.05134 7.80756 6.05134C11.1989 6.05134 13.9481 8.80077 13.9481 12.1924Z"
			stroke-width="1.66667" stroke-linecap="round" stroke-linejoin="round" />
	</symbol>

	<symbol id="phone" viewBox="0 0 20 20">
		<path
			d="M10.0013 15H10.0096M5.83464 1.66666H14.168C15.0884 1.66666 15.8346 2.41285 15.8346 3.33332V16.6667C15.8346 17.5871 15.0884 18.3333 14.168 18.3333H5.83464C4.91416 18.3333 4.16797 17.5871 4.16797 16.6667V3.33332C4.16797 2.41285 4.91416 1.66666 5.83464 1.66666Z"
			stroke-width="1.66667" stroke-linecap="round" stroke-linejoin="round" />
	</symbol>

	<symbol id="chevron-down" viewBox="0 0 16 17">
		<path d="M4 10.5L8 6.5L12 10.5" stroke-width="2" stroke-linecap="round" stroke-linejoin="round" />
	</symbol>

	<symbol id="attention-icon" viewBox="0 0 15 15">
		<path
			d="M7.5013 5.16667V7.5M7.5013 9.83333H7.50714M13.3346 7.5C13.3346 10.7217 10.723 13.3333 7.5013 13.3333C4.27964 13.3333 1.66797 10.7217 1.66797 7.5C1.66797 4.27834 4.27964 1.66667 7.5013 1.66667C10.723 1.66667 13.3346 4.27834 13.3346 7.5Z"
			stroke-width="1.2" stroke-linecap="round" stroke-linejoin="round" />
	</symbol>

	<symbol id="close" viewBox="0 0 24 24">
		<path d="M18 6L6 18M6 6L18 18" stroke-width="2" stroke-linecap="round" stroke-linejoin="round" />
	</symbol>

</svg>