<svg width="41" height="14" viewBox="0 0 41 14" fill="none" xmlns="http://www.w3.org/2000/svg">
<g clip-path="url(#clip0_760_10341)">
<path d="M17.834 13.3125H14.5938L16.6205 0.728111H19.8606L17.834 13.3125Z" fill="#00579F"/>
<path d="M29.5793 1.03576C28.9402 0.781132 27.9265 0.499992 26.6731 0.499992C23.4732 0.499992 21.2198 2.21352 21.206 4.66334C21.1794 6.47081 22.8193 7.47473 24.0459 8.0774C25.2995 8.69323 25.7256 9.09519 25.7256 9.64412C25.7129 10.4872 24.7126 10.8758 23.7797 10.8758C22.486 10.8758 21.7929 10.6754 20.7395 10.2064L20.3128 10.0053L19.8594 12.8302C20.6193 13.1779 22.0195 13.4865 23.4732 13.5C26.8731 13.5 29.0866 11.813 29.1128 9.20231C29.1257 7.76975 28.2598 6.67206 26.3929 5.77508C25.2596 5.19928 24.5656 4.81103 24.5656 4.22188C24.5788 3.68629 25.1526 3.13772 26.4319 3.13772C27.4853 3.11085 28.2593 3.36512 28.8456 3.61957L29.1387 3.7532L29.5793 1.03576Z" fill="#00579F"/>
<path d="M33.8843 8.85427C34.1512 8.13132 35.178 5.33327 35.178 5.33327C35.1645 5.36014 35.4443 4.59697 35.6043 4.12847L35.8308 5.21281C35.8308 5.21281 36.4444 8.22509 36.5776 8.85427C36.0712 8.85427 34.5244 8.85427 33.8843 8.85427ZM37.8841 0.728111H35.3777C34.6048 0.728111 34.0176 0.955513 33.6841 1.77224L28.8711 13.3123H32.271C32.271 13.3123 32.8308 11.7591 32.9511 11.4246C33.3241 11.4246 36.6315 11.4246 37.1113 11.4246C37.2044 11.8664 37.498 13.3123 37.498 13.3123H40.4981L37.8841 0.728111Z" fill="#00579F"/>
<path d="M11.8867 0.728111L8.71338 9.30943L8.36662 7.56904C7.77994 5.56085 5.94 3.379 3.88672 2.29413L6.79335 13.2991H10.2199L15.313 0.728111H11.8867Z" fill="#00579F"/>
<path d="M5.76663 0.728111H0.553334L0.5 0.982382C4.5667 2.02669 7.25999 4.54395 8.36654 7.56957L7.23323 1.78594C7.04665 0.982204 6.47326 0.754624 5.76663 0.728111Z" fill="#FAA61A"/>
</g>
<defs>
<clipPath id="clip0_760_10341">
<rect width="40" height="13" fill="white" transform="translate(0.5 0.5)"/>
</clipPath>
</defs>
</svg>
